<svg xmlns="http://www.w3.org/2000/svg" viewBox="0 0 1600 1200" xmlns:v="https://vecta.io/nano"><style><![CDATA[.V{stroke-width:4}.W{stroke-miterlimit:10}.X{stroke-linecap:round}.Y{fill:none}.Z{fill:#30242a}.a{stroke:#a15842}.b{fill:#a15842}.c{stroke:#30242a}.d{fill:#f5ebdd}.e{fill:#ff7235}.f{fill:#eaa58b}.g{fill:#4856df}.h{fill:#ffbe21}.i{fill:#3ec1f3}.j{stroke:#4756df}.k{stroke-linejoin:round}.l{stroke:#f5ebdd}.m{fill:#ffb7d5}]]></style><path d="M1247.965 436.454c128.598 117.251 247.289 248.385 216.402 353.112-30.693 104.726-210.963 182.894-376.47 219.865s-316.25 32.746-483.7-6.338C436.748 964.16 252.592 890.52 182.854 764.516c-69.738-125.853-25.059-303.917 104.122-421.47 128.987-117.402 342.669-174.141 518.472-150.903 175.802 23.39 314.113 126.909 442.517 244.311" fill="#c1e9f9"/><path d="M1365.331 291.618c96.785 110.475 156.327 235.312 153.243 357.497s-68.793 241.498-165.578 323.913-224.883 128.151-377.888 151.351-330.682 23.863-464.236-58.773c-133.316-82.414-222.511-247.906-192.384-385.779 29.889-137.652 178.862-247.464 312.179-357.939C764.22 211.413 882.118 100.275 1008.08 92.763c126.2-7.733 260.228 88.38 357.25 198.855" fill="#fff1b7"/><rect x="247.09" y="409.56" width="419.28" height="419.28" rx="29.33" class="d"/><circle cx="588.05" cy="386.9" r="10.12" class="b"/><path d="M588.05 351.72v31.81" class="V W Y a"/><path d="M616.26 362.33h15.4v133.01h-15.4z" class="b"/><path d="M669.8 252.66c-3.08 6.09-16 27.35-45.84 27.35s-42.75-21.26-45.84-27.35l-28.85 109.67h149.39z" class="h"/><path d="M657.35 254.79l19.4 107.56m-86.17-106.16l-19.15 106.16m39.95-106.85l-7.42 106.81m32.58-106.81l7.44 107.02" class="V W X Y l"/><path d="M624 280c29.85 0 42.76-21.26 45.84-27.35v-.21h-91.66l-.06.21c3.09 6.1 16 27.35 45.88 27.35z" class="e"/><rect x="820.58" y="204.25" width="419.28" height="419.28" rx="29.33" class="d"/><path d="M623.47 1016.78h0a11.4 11.4 0 0 1-11.32-10l-8.44-70.91h39.52l-8.44 70.91a11.39 11.39 0 0 1-11.32 10zm443.37 0h0a11.38 11.38 0 0 1-11.31-10l-8.44-70.91h39.51l-8.44 70.91a11.39 11.39 0 0 1-11.32 10z" class="Z"/><g class="m"><path d="M391.59 642.81H569v294H310.7V723.69a80.89 80.89 0 0 1 80.89-80.88z"/><path d="M590.14 495.34h611.24a80.89 80.89 0 0 1 80.89 80.89v360.55h-773V576.22a80.89 80.89 0 0 1 80.89-80.89z"/></g><path d="M509.25 686.13v250.65" class="V W X Y a"/><path d="M590.14 760.4h611.24a80.89 80.89 0 0 1 80.89 80.89v95.5h-773v-95.5a80.89 80.89 0 0 1 80.87-80.89z" class="m"/><g class="V W Y a"><path d="M963.84 760.4H587.22a78 78 0 0 0-78 78v98.42" class="X"/><path d="M1022.03 761.63v175.15m260.24-295.9h-180.35"/></g><path d="M455.28 610c23.13 2.89 30.34-6.93 33.73-15.42 3.85-9.63 1.37-17.91-1.63-28.67 0 0 7.64-4.16 6.45-8.93-1-3.85-9.69-4.28-9.69-4.28q-.51-2.58-.91-5.35c-1.93-13.5-4.82-21.21-4.82-21.21-6.75 1.93-15.42 1-18.31 0a57.67 57.67 0 0 1-20.24 27s-21.21-23.13-34.7-5.78c-11 14.15 4.82 31.8 15.42 33.73-6.3 13.29-23.25 21-32.07 24.22l1.5 11.44h66zm229.55 83.92a375.44 375.44 0 0 0 8.52-37.62l-23.13-62.65s9.64-26 1-29.88-27.99 21.23-35.7 41.45c-3.33 8.74-12.43 28.83-21.68 48.82z" class="f"/><path d="M589.25 706.42s-55.9-47.23-80.1-64.59-51.94-14.44-51.94-14.44L456 616.78h-66l1.65 12.53-49.14 175.43L489 793.17l-3.85-54s79 66 124.34 59.76c40.89-5.66 64.12-64.7 75.33-105l-71-39.88-24.57 52.37z" class="i"/><path d="M420.58 581.12c-10.6-1.93-26.43-19.58-15.42-33.73 13.49-17.35 34.7 5.78 34.7 5.78a57.67 57.67 0 0 0 20.24-27c2.89 1 11.56 1.93 18.31 0 0 0 14.46-4.82 13.49-16.38-1.29-15.52-25.06-8.68-25.06-8.68s-26-19.28-54-6.75C383 507.79 380.1 534.86 382 553.17c1.1 10.51 4.11 34 6.48 52.17 8.85-3.23 25.8-10.93 32.1-24.22z" class="Z"/><g class="W X Y"><path d="M688.66 668.35c-4.41 1.82-8.28 2.35-10 1.36-4.32-2.46-5-7.61.13-14.85 0 0-12.19 4.75-15.95-1.43s1.89-11.87 1.89-11.87-8.63 2.38-10.74-5.3 5-11.7 5-11.7-4.86-1.81-5-6.88c-.19-7.37 11.82-13.35 15.28-14.92" stroke-width="8" class="a"/><g class="V"><path d="M487.28 738.96l-3.57-41.69" class="j"/><path d="M454.37 611.78a61 61 0 0 1-16-6.08" class="a"/><path d="M348.77 791.72l24.84-66.05" class="j"/><path d="M479.52 575.79c-1.59 1-7.57 1.76-10-2.83" class="a"/></g></g><circle cx="470.7" cy="551.24" r="2.89" class="b"/><path d="M417.69 559.92l10.6 5.78" class="V W X Y a"/><path d="M688.1 977.54l73.83-21.85-23.33-77.84-92.13 38.46a422 422 0 0 0 41.63 61.23z" class="f"/><path d="M689.5 979.19a128 128 0 0 0-4 25.07h130.61A29.28 29.28 0 0 0 803.47 990l-37.83-21.42-3.71-12.9-73.83 21.86 1.4 1.65z" class="h"/><path d="M685.64 1016.78h133l-.41-4.12a29.14 29.14 0 0 0-2.13-8.4H685.49a77.71 77.71 0 0 0 .15 12.52z" class="e"/><path d="M620.1 854.86c6.38 22 16.15 43.11 26.37 61.45l92.13-38.46c-1-3.23-2-6.11-2.84-8.54C706.93 786 689.5 719 647.09 712.21c-66.75-10.62-180.3 104.34-197.35 122l24.56 14.89 77.22 36.27 28.13 6.49z" class="b"/><path d="M618 854a157 157 0 0 1-3.2-32.4" class="V W X Y c"/><path d="M975.76 626.42s-92.37 24.37-133 47.23c-46.27 26-49.16 60.72-78.07 148.43l-22 68.73 79.64 37.6.15-.3s39-5.73 42.41-54c2.57-36 3.8-62.71 16.38-89.64l214.94-158.07z" class="Z"/><path d="M699.75 943.76c-27.85 4.22-39.47 9.64-44 22.27l52.61 24.49s28.21-8 43.4-4.09v.05a169.27 169.27 0 0 1 29.67 9.93 443.14 443.14 0 0 0 41-68l-79.64-37.6c-11.42 33.35-20.94 49.6-43.04 52.95z" class="g"/><path d="M739.09 1004.84l25.66 11.94a228.29 228.29 0 0 0 16.62-20.37 169.27 169.27 0 0 0-29.67-9.93z" class="Z"/><path d="M725.92 922.98l17.86 7.81m-28.01 4.58l17.86 7.82" class="V W X Y l"/><circle cx="1069.25" cy="401.84" r="10.12" class="h"/><circle cx="1104.92" cy="297.75" r="40.48" class="Z"/><path d="M1077 324.74c2.48 1.14-18.31-48.2-28.91-40.49-10.02 7.26 16.34 34.75 28.91 40.49zm1.11 3.01c2.27 2.71 55.29-15.84 48-26.55-7.11-10.29-50.26 23.8-48 26.55z" class="i"/><path d="M1177.21 521.36l4.64-.72v-1.36a39.88 39.88 0 0 1-4.64 2.08z" class="Z"/><path d="M1050.94 510.76c45.12.82 67.89-45.12 73.67-58.83-2-.37-4-.69-6.2-.93-26-2.89-30.84-3.85-39.52-15.42s-9.64-34.7-9.64-34.7 22.48-5 19.28-23.13c-2.89-16.39-22.17-16.39-32.77-4.82 0 0-16.39-3.86-31.81-21.21 0 0-11.28 2.65-19 1.36-2 12.62-1.88 26.74-4.16 38.16-3.86 19.28-1 31.81 10.6 38.56s25.06 1.92 25.06 1.92l-2.89 17.35s-16.83 1.95-30.86 6.36c2.79 21.78 12.82 54.69 48.24 55.33zm67.9 112.1l-9.1 3.56h3.85zM905.4 514.62s-50.53-69-62.65-82.9c-13.5-15.42-31.81-31.8-37.59-26s10.6 25.06 10.6 25.06l-2.89 62.65s33.2 89.53 69.4 101.21c18.1 5.84 52.48-9.56 76.77-22.6l-37.57-68-16.07 10.58z" class="b"/><path d="M1177.21 521.36s-3.86-21.2-8.68-32.77c-7.21-17.32-19.11-32-43.92-36.66-5.78 13.71-28.55 59.65-73.67 58.83-35.42-.64-45.45-33.55-48.21-55.33a70.8 70.8 0 0 0-8.66 3.28c-10.17 4.75-49.92 30.49-72.6 45.33L959 572c15.79-8.47 27.32-16 27.32-16l-10.6 70.36h134l9.1-3.56 63-42.74a397 397 0 0 0-4.61-58.7z" class="e"/><path d="M1205.16 472.21c-6.91-32.81-42.41-31.81-42.41-31.81a48.82 48.82 0 0 0-12.53-44.34c-19.28-20.24-46.27-11.57-46.27-11.57 1-11.56 2.89-41.44-22.17-59.75s-56.86-8.68-68.43 5.78c-4.71 5.89-7 13.87-8.37 22.56 7.69 1.29 19-1.36 19-1.36 15.42 17.35 31.81 21.21 31.81 21.21 10.6-11.57 29.88-11.57 32.77 4.82 3.2 18.13-19.28 23.13-19.28 23.13s1 23.13 9.64 34.7 13.5 12.53 39.52 15.42c2.16.24 4.22.56 6.2.93 24.81 4.65 36.71 19.34 43.92 36.66 4.82 11.57 8.68 32.77 8.68 32.77a39.88 39.88 0 0 0 4.59-2.08c9.34-4.86 29.29-18.77 23.33-47.07z" class="Z"/><path d="M1067.33 384.49l7.71-4.81M1018 407.12c1.6 1 7.57 1.76 10-2.83" class="V W X Y c"/><g class="Z"><circle cx="1033.72" cy="382.54" r="2.89"/><circle cx="1011.42" cy="378.71" r="2.89"/></g><g class="X Y"><g class="c"><path d="M1019.13 386.42s-2.63 6.59-2 7.91a4.93 4.93 0 0 0 2 2" class="V W"/><path d="M822 506.44a7.4 7.4 0 0 0 4.35-1.46c3.41-3.41 2.72-8.4-3.94-13.84 0 0 12.62 1.31 14.54-5.44s-4.81-10.6-4.81-10.6 8.67 0 8.67-7.71-7.71-9.64-7.71-9.64 4.08-2.95 2.89-7.71c-1.93-7.71-18.31-9.64-18.31-9.64l-2.26-2.76" stroke-width="8" class="k"/><path d="M1037 433.6a111.52 111.52 0 0 0 11.88-5.55M907.8 514.4l10.13 13.71" class="V W"/></g><path d="M989.62 524.24l-4.92 30.88m124.07 31.78l-.48-49.63" class="a V W"/><path d="M1164.21 441.75a88.6 88.6 0 0 1-5.57 15.14m-52.92-71.29l-2.73 14.32" stroke="#000" class="k V"/></g><path d="M1047.09 627.39s-82.9 26-129.16 48.19c-46 22-40.48 73.25-31.81 162.89l8.48 76.15h88c4.52-2.52 31.2-19.65 15.29-66.51-11.62-34.21-21.65-56.87-21.65-86.59h73.6a80.44 80.44 0 0 0 80.41-78.14l1.61-56z" class="Z"/><path d="M877.82 978c-23.44 15.62-31.67 25.44-30.45 38.81l58-.08s22.17-19.19 37.59-22.08a164.44 164.44 0 0 1 31-2.89c3.53-17.29 7.33-43.24 8-76.78l.64-.33h-88c3.07 32.98 1.12 51.4-16.78 63.35z" class="g"/><path d="M939.33 1016.64h28.31s3.08-8.61 6.4-24.87a164.44 164.44 0 0 0-31 2.89z" class="Z"/><g class="V X Y"><path d="M975.35 763.29h-22.72" stroke="#000" class="k"/><path d="M892.83 952.69h21.73M888 968.11h21.73" class="W l"/></g><circle cx="594.56" cy="757.02" r="42.89" fill="#fff"/><rect x="582.51" y="731.96" width="24.1" height="38.55" rx="12.05" class="g"/><g stroke="#4856df" class="V W X Y"><path d="M594.56 766.66v13.5"/><path d="M587.65 780.16h13.81"/></g><g fill="#fff"><circle cx="291.9" cy="454.37" r="15.9"/><circle cx="340.1" cy="454.37" r="15.9"/><circle cx="388.29" cy="454.37" r="15.9"/></g><path d="M637 409.56a29.32 29.32 0 0 1 29.32 29.32v360.63A29.32 29.32 0 0 1 637 828.83H276.41a29.32 29.32 0 0 1-29.32-29.32V438.88a29.32 29.32 0 0 1 29.32-29.32H637m0-4H276.41a33.36 33.36 0 0 0-33.32 33.32v360.63a33.36 33.36 0 0 0 33.32 33.32H637a33.36 33.36 0 0 0 33.32-33.32V438.88A33.36 33.36 0 0 0 637 405.56z" class="d"/><path d="M1104.84 642.81h177.43v294H1024V723.69a80.89 80.89 0 0 1 80.84-80.88z" class="m"/><path d="M1237.93 936.94a34.7 34.7 0 0 1 65.54 0 34.72 34.72 0 0 1 30.86-23.23 86.59 86.59 0 0 0-10.89-15.27l-12.6-14.11a28.71 28.71 0 0 1-3.84-32.73l10.7-19.88h0c-3 3-20.36 19.28-46.71 19.28s-43.7-16.25-46.7-19.28h0L1235 851.6a28.73 28.73 0 0 1-3.86 32.73l-12.6 14.11a86.41 86.41 0 0 0-10.91 15.3 34.7 34.7 0 0 1 30.3 23.2zm98.31 20.06a34.72 34.72 0 0 0-32.77 23.3 34.69 34.69 0 0 0-65.54 0 34.71 34.71 0 0 0-41.45-22.2 86.33 86.33 0 0 0 24.82 58.66h99.28a86.29 86.29 0 0 0 24.81-58.53 34.9 34.9 0 0 0-9.15-1.23z" fill="#4756df"/><path d="M1270.94 851c26.35 0 43.7-16.25 46.71-19.28h-93.41c3 3.03 20.36 19.28 46.7 19.28z" class="Z"/><path d="M1237.93 980.32a34.69 34.69 0 0 1 65.54 0 34.69 34.69 0 0 1 41.92-22.07 86.35 86.35 0 0 0-11.06-44.54 34.72 34.72 0 0 0-30.86 23.23 34.7 34.7 0 0 0-65.54 0 34.7 34.7 0 0 0-30.4-23.2 86.48 86.48 0 0 0-11 44.38 34.71 34.71 0 0 1 41.45 22.2z" class="i"/><path d="M1277.86 848.27c1.9-11.66 10.57-57.92 32.36-83m-42.43 83.33c-.14-13.24-1.5-78.3-14.44-117.12" class="V W X Y c"/><g class="Z"><ellipse cx="1321.67" cy="795.36" rx="37.8" ry="8.5" transform="rotate(336.25 1321.403 795.258)"/><ellipse cx="1319.25" cy="680.5" rx="20.91" ry="7.3" transform="rotate(306.49 1319.217 680.508)"/><ellipse cx="1220.51" cy="801.71" rx="45.61" ry="8.06" transform="rotate(351.4 1220.871 801.931)"/></g><path d="M1204.28 744.71v.07a16.86 16.86 0 0 1-13.76 30.64v.07c20.88 9.38 40.9 10.09 44.72 1.59s-10.08-22.99-30.96-32.37zm61.72-67.99c-4.45-1.15-10.23 5.57-14.45 16-5.08-12.63-12.45-21.08-17.41-19.44s-5.86 12.81-2.42 26c-9.58-5.84-18.23-7.8-21.11-4.23-3.68 4.56 3.41 16.38 15.84 26.41a70.73 70.73 0 0 0 11.37 7.57 16.85 16.85 0 0 1 26.73-9.15 71.84 71.84 0 0 0 4.45-12.46c4-15.5 2.67-29.23-3-30.7zm96.9 70.17c-1.37-4.38-10.13-5.73-21.19-3.82 8-11 11.32-21.71 7.3-25.06s-14 1.81-23.34 11.69c-.11-11.22-3-19.59-7.57-20.15-5.81-.71-12.1 11.56-14 27.41a70.93 70.93 0 0 0-.41 13.65 16.85 16.85 0 0 1 21.9 17.85 71.57 71.57 0 0 0 12.93-2.81c15.19-4.77 26.13-13.17 24.38-18.76z" class="e"/><path d="M1319.57 753.71a16.84 16.84 0 0 0-15.93-3.1c.54 7.54 2.45 13.31 5.32 15.46 2.67 2.48 8.87 3.3 16.58 2.39a16.83 16.83 0 0 0-5.97-14.75zm-70.69-36.6a16.82 16.82 0 0 0-11.05 11.89c6.68 3.53 12.59 5 15.93 3.66 3.52-1 7.49-5.78 10.8-12.81a16.83 16.83 0 0 0-15.68-2.74z" class="Z"/><path d="M1206.14 773a8.19 8.19 0 0 1 6.72-14.87 16.85 16.85 0 0 0-8.61-13.37l-13.76 30.64a16.82 16.82 0 0 0 15.65-2.4z" class="d"/><path d="M1202.63 762.5a8.19 8.19 0 0 0 3.51 10.52 16.82 16.82 0 0 0 6.72-14.87 8.19 8.19 0 0 0-10.23 4.35z" class="g"/><g fill="#fff"><circle cx="865.4" cy="249.07" r="15.9"/><circle cx="913.59" cy="249.07" r="15.9"/><circle cx="961.78" cy="249.07" r="15.9"/></g><path d="M1210.53 204.25a29.33 29.33 0 0 1 29.33 29.33v360.63a29.33 29.33 0 0 1-29.33 29.32H849.91a29.33 29.33 0 0 1-29.33-29.32V233.58a29.33 29.33 0 0 1 29.33-29.33h360.62m0-4H849.91a33.37 33.37 0 0 0-33.33 33.33v360.63a33.36 33.36 0 0 0 33.33 33.32h360.62a33.36 33.36 0 0 0 33.33-33.32V233.58a33.37 33.37 0 0 0-33.33-33.33z" class="d"/><path d="M816.72 430.76s-21.2 0-24.09 8.67 3.85 15.43 3.85 15.43-11.56 5.78-3.85 16.38c0 0-5.79 9.64 3.85 15.42 0 0-5.78 6.75 3.86 13.5s23.13 7.71 26 4.82c3.41-3.41 2.72-8.4-3.94-13.84 0 0 12.62 1.31 14.54-5.44s-4.81-10.6-4.81-10.6 8.67 0 8.67-7.71-7.71-9.64-7.71-9.64 4.08-2.95 2.89-7.71c-1.42-5.67-10.64-8.21-15.43-9.16a33.32 33.32 0 0 0-3.85-.48z" class="b"/><path d="M797.59 487.47A139.18 139.18 0 0 0 827 493m-33-21a153.66 153.66 0 0 0 42.68 4.39M797.05 456a118.34 118.34 0 0 0 40.42 2.58" class="V W X Y c"/><path d="M1106.84 613.93s-78.07 20.25-105.06 40.49c-12.19 9.14-27 26-31.8 33.73s-25.06 36.63-15.42 37.59 20.24-16.38 20.24-16.38-5.8 21.2-4.8 27.95 10.6 4.82 10.6 4.82c7.71 7.71 14.46-1.93 14.46-1.93 13.49 8.67 28-37.59 28-37.59a91 91 0 0 0 21.69-14.94s86.26-.48 113.25-24.58c19.16-17.1 23.89-50.83 23.88-82.93h-75z" class="b"/><g class="Y V X"><path d="M1107.56 611.59l17.6-4.4M971 717c5-17 9-27 12-33.19m13.48 5.79c-8.68 18.7-14 41.26-16.48 52.4m30-45.66c-5.67 13-10.82 32.56-14 44.66" class="W c"/><path d="M987.48 647.67c-23.49 8.36-49.71 18.4-69.55 27.91-35.56 17-40.33 51.51-36.66 107.68" stroke="#000" class="k"/></g><path d="M422.57 924.29c-39.43 8-67.53 18.28-67.53 18.28l-37.94-16.81.08-.83-88.41 80.29 1.93 2.31a25.72 25.72 0 0 0 19.75 9.25H427.9z" class="f"/><path d="M355 942.57s28.1-10.33 67.53-18.28l5.33 92.49h126.65c34.24 0 64.25-24 70.63-57.64 4.25-22.45-2.39-46.49-26.25-62.84-38.38-26.3-120.48-60.72-141.68-67.47l-116.63 27c-22.17 24.1-17.35 63.61-17.35 63.61z" class="b"/><path d="M422.86 925.54c26.22-5.07 55.51-9.46 96.51-7.55m-60.16-90.16c18.55 5.91 83.73 33 125.44 57.3" class="V W X Y c"/><path d="M336 925.63l-97.29 88.29a25.61 25.61 0 0 0 11.77 2.86h70.82l33.7-74.21a72.07 72.07 0 0 0-19-16.94z" class="h"/><path d="M323.23 919.43l-94.46 85.79 1.93 2.31a25.61 25.61 0 0 0 8 6.39l97.3-88.29a64.25 64.25 0 0 0-12.77-6.2z" class="e"/><g class="V W X Y"><path d="M301.54 999.92V1017m-15.42-17.08V1017" class="c"/><path d="M392.05 627.69c3-.28 9.26-.79 15.52-.79" class="j"/></g><path d="M670.22 593.65s18.8-6.23 24 1.61.38 16.4.38 16.4 13.09 2.59 8.32 15.25c0 0 8.39 8 .39 16.4 0 0 7.6 5.13-.15 14.48s-20.9 14-24.57 11.92c-4.32-2.46-5-7.61.13-14.85 0 0-12.19 4.75-15.95-1.43s1.89-11.87 1.89-11.87-8.63 2.38-10.74-5.3 5-11.7 5-11.7-4.86-1.81-5-6.88c-.19-7.37 12.74-13.79 16.2-15.35z" class="f"/><path d="M656 625.91c7.42-1.3 26.27-5.32 38.75-14M659 643.92A106 106 0 0 0 703 628m-30 30.59c2.67-.94 20.09-7.19 30.66-13.89" class="V W X Y a"/><path d="M406.17 782c-17.45 2.13-36.92 5.28-58.84 9.2l30.84-82.89 13.49-79s-44.33 4.82-64.57 28c-18.67 21.33-77.11 120.48-54 172.53s92.55 33.69 108.91 28.87c8.93-2.63 22.46-8.69 36.35-13.2z" class="i"/><path d="M451.42 840.4c21.21 2.89 45.3 13.49 49.16 0 0 0 13-.33 8.9-12.69 0 0 6.52-.81 7.48-5.63 1.93-9.63-21.2-18.31-21.2-18.31s18.31 2.89 22.17-1c4.91-4.92.13-12.75-29.78-20-21.72-5.26-48-4.94-82-.78l12.21 63.47c11.64-3.7 23.42-6.38 33.06-5.06z" class="f"/><g class="Y V W X"><path d="M504 805c-10.27-3.94-29.77-10.49-43.9-12.79m49.78 35.1c-13.4-6-39.28-17.12-53.16-19.2m42.77 33.29c-10.33-5.24-31-15.08-45.66-17.87" class="a"/><path d="M406.34 783.44c-9.42 1.22-39.55 5.38-84.56 14.07" class="j"/></g><circle cx="1168.05" cy="551.72" r="42.89" fill="#fff"/><rect x="1156" y="526.66" width="24.1" height="38.55" rx="12.05" class="g"/><g stroke="#4856df" class="V W X Y"><path d="M1168.05 561.36v13.5"/><path d="M1161.14 574.86h13.82"/></g></svg>