<svg viewBox="0 0 1600 1200" xmlns="http://www.w3.org/2000/svg"><g transform="matrix(3.3304769 0 0 1.5405649 -474.67797 988.18959)"><path d="m517.23604-358.13827c38.61252 76.10923 74.25035 161.23011 64.97635 229.20925-9.21568 67.97915-63.34319 118.71863-113.03785 142.717055-49.69467 23.998414-94.95647 21.255696-145.23441-4.1140485-50.27792-25.2717685-105.57198-73.0726745-126.51137-154.8631665-20.93944-81.6925-7.52423-197.27664 31.26326-273.58175 38.72919-76.20721 102.88896-113.0374 155.67496-97.95275 52.78598 15.1827 94.31486 82.37825 132.86906 158.58541" fill="#c1e9f9" stroke-width=".755869"/><path d="m552.47602-452.15351c29.06037 71.71066 46.93822 152.74371 46.01228 232.05572-.92595 79.31198-20.65568 156.759536-49.71605 210.2556875-29.06039 53.4961625-67.52266 83.1843865-113.46369 98.2436365-45.94106 15.059236-99.28966 15.489486-139.39013-38.150082-40.02924-53.4961635-66.8104-160.918762-57.76463-250.413682 8.97452-89.3515 53.70473-160.63189 93.73397-232.34256 40.10048-71.71067 75.50001-143.85163 113.32126-148.72796 37.89245-5.01973 78.13539 57.36856 107.26699 129.07924" fill="#fff1b7" stroke-width="1.01071"/></g><g><rect fill="#f5ebdd" height="419.28" rx="29.33" width="419.28" x="247.09" y="409.56"/><circle cx="588.04999" cy="386.89999" fill="#a15842" r="10.12"/><path d="m588.04999 351.72v31.81" fill="none" stroke="#a15842" stroke-miterlimit="10" stroke-width="4"/><path d="m616.26001 362.32999h15.4v133.00999h-15.4z" fill="#a15842"/><path d="m669.8 252.66c-3.08 6.09-16 27.35-45.84 27.35s-42.75-21.26-45.84-27.35l-28.85 109.67h149.39z" fill="#ffbe21"/><path d="m657.34998 254.78999 19.40002 107.56002" fill="none" stroke="#f5ebdd" stroke-linecap="round" stroke-miterlimit="10" stroke-width="4"/><path d="m590.58002 256.19-19.15003 106.16001" fill="none" stroke="#f5ebdd" stroke-linecap="round" stroke-miterlimit="10" stroke-width="4"/><path d="m611.38 255.5-7.41998 106.81" fill="none" stroke="#f5ebdd" stroke-linecap="round" stroke-miterlimit="10" stroke-width="4"/><path d="m636.53998 255.5 7.44 107.01999" fill="none" stroke="#f5ebdd" stroke-linecap="round" stroke-miterlimit="10" stroke-width="4"/><path d="m624 280c29.85 0 42.76-21.26 45.84-27.35v-.21h-91.66l-.06.21c3.09 6.1 16 27.35 45.88 27.35z" fill="#ff7235"/><rect fill="#f5ebdd" height="419.28" rx="29.33" width="419.28" x="820.58002" y="204.25"/><path d="m623.47 1016.78a11.4 11.4 0 0 1 -11.32-10l-8.44-70.91h39.52l-8.44 70.91a11.39 11.39 0 0 1 -11.32 10z" fill="#30242a"/><path d="m1066.84 1016.78a11.38 11.38 0 0 1 -11.31-10l-8.44-70.91h39.51l-8.44 70.91a11.39 11.39 0 0 1 -11.32 10z" fill="#30242a"/><path d="m391.59 642.81h177.41v294h-258.3v-213.12a80.89 80.89 0 0 1 80.89-80.88z" fill="#ffb7d5"/><path d="m590.14 495.34h611.24a80.89 80.89 0 0 1 80.89 80.89v360.55h-773v-360.56a80.89 80.89 0 0 1 80.89-80.89z" fill="#ffb7d5"/><path d="m509.25 686.13v250.65003" fill="none" stroke="#a15842" stroke-linecap="round" stroke-miterlimit="10" stroke-width="4"/><path d="m590.14 760.4h611.24a80.89 80.89 0 0 1 80.89 80.89v95.5h-773v-95.5a80.89 80.89 0 0 1 80.87-80.89z" fill="#ffb7d5"/><path d="m963.84 760.4h-376.62a78 78 0 0 0 -78 78v98.42" fill="none" stroke="#a15842" stroke-linecap="round" stroke-miterlimit="10" stroke-width="4"/><path d="m1022.03 761.63v175.15003" fill="none" stroke="#a15842" stroke-miterlimit="10" stroke-width="4"/><path d="m1282.27 640.88h-180.35" fill="none" stroke="#a15842" stroke-miterlimit="10" stroke-width="4"/><path d="m455.28 610c23.13 2.89 30.34-6.93 33.73-15.42 3.85-9.63 1.37-17.91-1.63-28.67 0 0 7.64-4.16 6.45-8.93-1-3.85-9.69-4.28-9.69-4.28q-.51-2.58-.91-5.35c-1.93-13.5-4.82-21.21-4.82-21.21-6.75 1.93-15.42 1-18.31 0a57.67 57.67 0 0 1 -20.24 27s-21.21-23.13-34.7-5.78c-11 14.15 4.82 31.8 15.42 33.73-6.3 13.29-23.25 21-32.07 24.22.54 4.18 1.05 8.06 1.5 11.44h66z" fill="#eaa58b"/><path d="m684.83 693.92a375.44 375.44 0 0 0 8.52-37.62l-23.13-62.65s9.64-26 1-29.88-27.99 21.23-35.7 41.45c-3.33 8.74-12.43 28.83-21.68 48.82z" fill="#eaa58b"/><path d="m589.25 706.42s-55.9-47.23-80.1-64.59-51.94-14.44-51.94-14.44l-1.21-10.61h-66c1 7.53 1.65 12.53 1.65 12.53l-49.14 175.43 146.49-11.57-3.85-54s79 66 124.34 59.76c40.89-5.66 64.12-64.7 75.33-105l-71-39.88c-12.13 26.26-24.57 52.37-24.57 52.37z" fill="#3ec1f3"/><path d="m420.58 581.12c-10.6-1.93-26.43-19.58-15.42-33.73 13.49-17.35 34.7 5.78 34.7 5.78a57.67 57.67 0 0 0 20.24-27c2.89 1 11.56 1.93 18.31 0 0 0 14.46-4.82 13.49-16.38-1.29-15.52-25.06-8.68-25.06-8.68s-26-19.28-54-6.75c-29.84 13.43-32.74 40.5-30.84 58.81 1.1 10.51 4.11 34 6.48 52.17 8.85-3.23 25.8-10.93 32.1-24.22z" fill="#30242a"/><path d="m688.66 668.35c-4.41 1.82-8.28 2.35-10 1.36-4.32-2.46-5-7.61.13-14.85 0 0-12.19 4.75-15.95-1.43s1.89-11.87 1.89-11.87-8.63 2.38-10.74-5.3 5-11.7 5-11.7-4.86-1.81-5-6.88c-.19-7.37 11.82-13.35 15.28-14.92" fill="none" stroke="#a15842" stroke-linecap="round" stroke-miterlimit="10" stroke-width="8"/><path d="m487.28 738.96002-3.57001-41.69" fill="none" stroke="#4756df" stroke-linecap="round" stroke-miterlimit="10" stroke-width="4"/><path d="m454.37 611.78a61 61 0 0 1 -16-6.08" fill="none" stroke="#a15842" stroke-linecap="round" stroke-miterlimit="10" stroke-width="4"/><path d="m348.76999 791.71997 24.84-66.04999" fill="none" stroke="#4756df" stroke-linecap="round" stroke-miterlimit="10" stroke-width="4"/><path d="m479.52 575.79c-1.59 1-7.57 1.76-10-2.83" fill="none" stroke="#a15842" stroke-linecap="round" stroke-miterlimit="10" stroke-width="4"/><circle cx="470.70001" cy="551.23999" fill="#a15842" r="2.89"/><path d="m417.69 559.91998 10.60001 5.78003" fill="none" stroke="#a15842" stroke-linecap="round" stroke-miterlimit="10" stroke-width="4"/><path d="m688.1 977.54 73.83-21.85c-5.63-19.46-16.4-56.35-23.33-77.84l-92.13 38.46a422 422 0 0 0 41.63 61.23z" fill="#eaa58b"/><path d="m447.57 836.54 26.73 12.56-24.56-14.84c-1.42 1.48-2.17 2.28-2.17 2.28z" fill="none"/><path d="m574.8 896.3 4.85-4.44-28.13-6.49z" fill="none"/><path d="m689.5 979.19a128 128 0 0 0 -4 25.07h130.61a29.28 29.28 0 0 0 -12.64-14.26l-37.83-21.42s-1.44-5-3.71-12.9l-73.83 21.86c.9 1.08 1.4 1.65 1.4 1.65z" fill="#ffbe21"/><path d="m685.64 1016.78h133l-.41-4.12a29.14 29.14 0 0 0 -2.13-8.4h-130.61a77.71 77.71 0 0 0 .15 12.52z" fill="#ff7235"/><path d="m620.1 854.86c6.38 22 16.15 43.11 26.37 61.45l92.13-38.46c-1-3.23-2-6.11-2.84-8.54-28.83-83.31-46.26-150.31-88.67-157.1-66.75-10.62-180.3 104.34-197.35 122l24.56 14.89 77.22 36.27 28.13 6.49z" fill="#a15842"/><path d="m618 854a157 157 0 0 1 -3.2-32.4" fill="none" stroke="#30242a" stroke-linecap="round" stroke-miterlimit="10" stroke-width="4"/><path d="m975.76 626.42s-92.37 24.37-133 47.23c-46.27 26-49.16 60.72-78.07 148.43-9.31 28.23-15.89 50.91-22 68.73l79.64 37.6.15-.3s39-5.73 42.41-54c2.57-36 3.8-62.71 16.38-89.64l214.94-158.07z" fill="#30242a"/><path d="m699.75 943.76c-27.85 4.22-39.47 9.64-44 22.27l52.61 24.49s28.21-8 43.4-4.09v.05a169.27 169.27 0 0 1 29.67 9.93 443.14 443.14 0 0 0 41-68l-79.64-37.6c-11.42 33.35-20.94 49.6-43.04 52.95z" fill="#4856df"/><path d="m739.09 1004.84 25.66 11.94a228.29 228.29 0 0 0 16.62-20.37 169.27 169.27 0 0 0 -29.67-9.93z" fill="#30242a"/><path d="m725.91998 922.97998 17.86005 7.81" fill="none" stroke="#f5ebdd" stroke-linecap="round" stroke-miterlimit="10" stroke-width="4"/><path d="m715.77002 935.37 17.85998 7.82" fill="none" stroke="#f5ebdd" stroke-linecap="round" stroke-miterlimit="10" stroke-width="4"/><circle cx="1069.25" cy="401.84" fill="#ffbe21" r="10.12"/><circle cx="1104.92" cy="297.75" fill="#30242a" r="40.48"/><path d="m1077 324.74c2.48 1.14-18.31-48.2-28.91-40.49-10.02 7.26 16.34 34.75 28.91 40.49z" fill="#3ec1f3"/><path d="m1078.11 327.75c2.27 2.71 55.29-15.84 48-26.55-7.11-10.29-50.26 23.8-48 26.55z" fill="#3ec1f3"/><path d="m1177.21 521.36 4.64-.72v-1.36a39.88 39.88 0 0 1 -4.64 2.08z" fill="#30242a"/><path d="m1050.94 510.76c45.12.82 67.89-45.12 73.67-58.83-2-.37-4-.69-6.2-.93-26-2.89-30.84-3.85-39.52-15.42s-9.64-34.7-9.64-34.7 22.48-5 19.28-23.13c-2.89-16.39-22.17-16.39-32.77-4.82 0 0-16.39-3.86-31.81-21.21 0 0-11.28 2.65-19 1.36-2 12.62-1.88 26.74-4.16 38.16-3.86 19.28-1 31.81 10.6 38.56s25.06 1.92 25.06 1.92l-2.89 17.35s-16.83 1.95-30.86 6.36c2.79 21.78 12.82 54.69 48.24 55.33z" fill="#a15842"/><path d="m1118.84 622.86-9.1 3.56h3.85z" fill="#a15842"/><path d="m905.4 514.62s-50.53-69-62.65-82.9c-13.5-15.42-31.81-31.8-37.59-26s10.6 25.06 10.6 25.06l-2.89 62.65s33.2 89.53 69.4 101.21c18.1 5.84 52.48-9.56 76.77-22.6l-37.57-68c-9.55 6.26-16.07 10.58-16.07 10.58z" fill="#a15842"/><path d="m1177.21 521.36s-3.86-21.2-8.68-32.77c-7.21-17.32-19.11-32-43.92-36.66-5.78 13.71-28.55 59.65-73.67 58.83-35.42-.64-45.45-33.55-48.21-55.33a70.8 70.8 0 0 0 -8.66 3.28c-10.17 4.75-49.92 30.49-72.6 45.33l37.53 67.96c15.79-8.47 27.32-16 27.32-16l-10.6 70.36h134l9.1-3.56 63-42.74a397 397 0 0 0 -4.61-58.7z" fill="#ff7235"/><path d="m1205.16 472.21c-6.91-32.81-42.41-31.81-42.41-31.81a48.82 48.82 0 0 0 -12.53-44.34c-19.28-20.24-46.27-11.57-46.27-11.57 1-11.56 2.89-41.44-22.17-59.75s-56.86-8.68-68.43 5.78c-4.71 5.89-7 13.87-8.37 22.56 7.69 1.29 19-1.36 19-1.36 15.42 17.35 31.81 21.21 31.81 21.21 10.6-11.57 29.88-11.57 32.77 4.82 3.2 18.13-19.28 23.13-19.28 23.13s1 23.13 9.64 34.7 13.5 12.53 39.52 15.42c2.16.24 4.22.56 6.2.93 24.81 4.65 36.71 19.34 43.92 36.66 4.82 11.57 8.68 32.77 8.68 32.77a39.88 39.88 0 0 0 4.59-2.08c9.34-4.86 29.29-18.77 23.33-47.07z" fill="#30242a"/><path d="m1067.33 384.48999 7.71-4.81" fill="none" stroke="#30242a" stroke-linecap="round" stroke-miterlimit="10" stroke-width="4"/><path d="m1018 407.12c1.6 1 7.57 1.76 10-2.83" fill="none" stroke="#30242a" stroke-linecap="round" stroke-miterlimit="10" stroke-width="4"/><circle cx="1033.72" cy="382.54001" fill="#30242a" r="2.89"/><circle cx="1011.42" cy="378.70999" fill="#30242a" r="2.89"/><g fill="none"><path d="m1019.13 386.42s-2.63 6.59-2 7.91a4.93 4.93 0 0 0 2 2" stroke="#30242a" stroke-linecap="round" stroke-miterlimit="10" stroke-width="4"/><path d="m822 506.44a7.4 7.4 0 0 0 4.35-1.46c3.41-3.41 2.72-8.4-3.94-13.84 0 0 12.62 1.31 14.54-5.44s-4.81-10.6-4.81-10.6 8.67 0 8.67-7.71-7.71-9.64-7.71-9.64 4.08-2.95 2.89-7.71c-1.93-7.71-18.31-9.64-18.31-9.64l-2.26-2.76" stroke="#30242a" stroke-linecap="round" stroke-linejoin="round" stroke-width="8"/><path d="m1037 433.6a111.52 111.52 0 0 0 11.88-5.55" stroke="#30242a" stroke-linecap="round" stroke-miterlimit="10" stroke-width="4"/><path d="m907.79999 514.40002 10.13 13.70997" stroke="#30242a" stroke-linecap="round" stroke-miterlimit="10" stroke-width="4"/><path d="m989.62 524.23999-4.91999 30.88001" stroke="#a15842" stroke-linecap="round" stroke-miterlimit="10" stroke-width="4"/><path d="m1108.77 586.90002-.48-49.63" stroke="#a15842" stroke-linecap="round" stroke-miterlimit="10" stroke-width="4"/><path d="m1164.21 441.75a88.6 88.6 0 0 1 -5.57 15.14" stroke="#000" stroke-linecap="round" stroke-linejoin="round" stroke-width="4"/><path d="m1105.72 385.60001-2.73 14.32" stroke="#000" stroke-linecap="round" stroke-linejoin="round" stroke-width="4"/></g><path d="m1047.09 627.39s-82.9 26-129.16 48.19c-46 22-40.48 73.25-31.81 162.89 3.07 31.69 6.66 56.5 8.48 76.15h88c4.52-2.52 31.2-19.65 15.29-66.51-11.62-34.21-21.65-56.87-21.65-86.59h73.6a80.44 80.44 0 0 0 80.41-78.14l1.61-56z" fill="#30242a"/><path d="m877.82 978c-23.44 15.62-31.67 25.44-30.45 38.81l58-.08s22.17-19.19 37.59-22.08a164.44 164.44 0 0 1 31-2.89c3.53-17.29 7.33-43.24 8-76.78l.64-.33h-88c3.07 32.98 1.12 51.4-16.78 63.35z" fill="#4856df"/><path d="m939.33 1016.64h28.31s3.08-8.61 6.4-24.87a164.44 164.44 0 0 0 -31 2.89z" fill="#30242a"/><path d="m975.34998 763.28998h-22.71998" fill="none" stroke="#000" stroke-linecap="round" stroke-linejoin="round" stroke-width="4"/><path d="m892.83002 952.69h21.72998" fill="none" stroke="#f5ebdd" stroke-linecap="round" stroke-miterlimit="10" stroke-width="4"/><path d="m888 968.10999h21.72998" fill="none" stroke="#f5ebdd" stroke-linecap="round" stroke-miterlimit="10" stroke-width="4"/><circle cx="594.56" cy="757.02002" fill="#fff" r="42.889999"/><rect fill="#4856df" height="38.549999" rx="12.05" width="24.1" x="582.51001" y="731.96002"/><path d="m594.56 766.65997v13.5" fill="none" stroke="#4856df" stroke-linecap="round" stroke-miterlimit="10" stroke-width="4"/><path d="m587.65002 780.15997h13.81" fill="none" stroke="#4856df" stroke-linecap="round" stroke-miterlimit="10" stroke-width="4"/><circle cx="291.89999" cy="454.37" fill="#fff" r="15.9"/><circle cx="340.10001" cy="454.37" fill="#fff" r="15.9"/><circle cx="388.29001" cy="454.37" fill="#fff" r="15.9"/><path d="m637 409.56a29.32 29.32 0 0 1 29.32 29.32v360.63a29.32 29.32 0 0 1 -29.32 29.32h-360.59a29.32 29.32 0 0 1 -29.32-29.32v-360.63a29.32 29.32 0 0 1 29.32-29.32zm0-4h-360.59a33.36 33.36 0 0 0 -33.32 33.32v360.63a33.36 33.36 0 0 0 33.32 33.32h360.59a33.36 33.36 0 0 0 33.32-33.32v-360.63a33.36 33.36 0 0 0 -33.32-33.32z" fill="#f5ebdd"/><path d="m1104.84 642.81h177.43v294h-258.27v-213.12a80.89 80.89 0 0 1 80.84-80.88z" fill="#ffb7d5"/><path d="m1237.93 936.94a34.7 34.7 0 0 1 65.54 0 34.72 34.72 0 0 1 30.86-23.23 86.59 86.59 0 0 0 -10.89-15.27l-12.6-14.11a28.71 28.71 0 0 1 -3.84-32.73l10.7-19.88c-3 3-20.36 19.28-46.71 19.28s-43.7-16.25-46.7-19.28l10.71 19.88a28.73 28.73 0 0 1 -3.86 32.73l-12.6 14.11a86.41 86.41 0 0 0 -10.91 15.3 34.7 34.7 0 0 1 30.3 23.2z" fill="#4756df"/><path d="m1336.24 957a34.72 34.72 0 0 0 -32.77 23.3 34.69 34.69 0 0 0 -65.54 0 34.71 34.71 0 0 0 -41.45-22.2 86.33 86.33 0 0 0 24.82 58.66h99.28a86.29 86.29 0 0 0 24.81-58.53 34.9 34.9 0 0 0 -9.15-1.23z" fill="#4756df"/><path d="m1270.94 851c26.35 0 43.7-16.25 46.71-19.28h-93.41c3 3.03 20.36 19.28 46.7 19.28z" fill="#30242a"/><path d="m1237.93 980.32a34.69 34.69 0 0 1 65.54 0 34.69 34.69 0 0 1 41.92-22.07 86.35 86.35 0 0 0 -11.06-44.54 34.72 34.72 0 0 0 -30.86 23.23 34.7 34.7 0 0 0 -65.54 0 34.7 34.7 0 0 0 -30.4-23.2 86.48 86.48 0 0 0 -11 44.38 34.71 34.71 0 0 1 41.45 22.2z" fill="#3ec1f3"/><path d="m1277.86 848.27c1.9-11.66 10.57-57.92 32.36-83" fill="none" stroke="#30242a" stroke-linecap="round" stroke-miterlimit="10" stroke-width="4"/><path d="m1267.79 848.6c-.14-13.24-1.5-78.3-14.44-117.12" fill="none" stroke="#30242a" stroke-linecap="round" stroke-miterlimit="10" stroke-width="4"/><ellipse cx="1321.67" cy="795.35999" fill="#30242a" rx="37.799999" ry="8.5" transform="matrix(.91531148 -.40274669 .40274669 .91531148 -208.380006 599.53998)"/><ellipse cx="1319.25" cy="680.5" fill="#30242a" rx="20.91" ry="7.3" transform="matrix(.59468248 -.80396066 .80396066 .59468248 -12.39998 1336.42003)"/><ellipse cx="1220.51" cy="801.71002" fill="#30242a" rx="45.610001" ry="8.06" transform="matrix(.98875638 -.14953534 .14953534 .98875638 -106.19 191.58)"/><path d="m1204.28 744.71v.07a16.86 16.86 0 0 1 -13.76 30.64v.07c20.88 9.38 40.9 10.09 44.72 1.59s-10.08-22.99-30.96-32.37z" fill="#ff7235"/><path d="m1266 676.72c-4.45-1.15-10.23 5.57-14.45 16-5.08-12.63-12.45-21.08-17.41-19.44s-5.86 12.81-2.42 26c-9.58-5.84-18.23-7.8-21.11-4.23-3.68 4.56 3.41 16.38 15.84 26.41a70.73 70.73 0 0 0 11.37 7.57 16.85 16.85 0 0 1 26.73-9.15 71.84 71.84 0 0 0 4.45-12.46c4-15.5 2.67-29.23-3-30.7z" fill="#ff7235"/><path d="m1362.9 746.89c-1.37-4.38-10.13-5.73-21.19-3.82 8-11 11.32-21.71 7.3-25.06s-14 1.81-23.34 11.69c-.11-11.22-3-19.59-7.57-20.15-5.81-.71-12.1 11.56-14 27.41a70.93 70.93 0 0 0 -.41 13.65 16.85 16.85 0 0 1 21.9 17.85 71.57 71.57 0 0 0 12.93-2.81c15.19-4.77 26.13-13.17 24.38-18.76z" fill="#ff7235"/><path d="m1319.57 753.71a16.84 16.84 0 0 0 -15.93-3.1c.54 7.54 2.45 13.31 5.32 15.46 2.67 2.48 8.87 3.3 16.58 2.39a16.83 16.83 0 0 0 -5.97-14.75z" fill="#30242a"/><path d="m1248.88 717.11a16.82 16.82 0 0 0 -11.05 11.89c6.68 3.53 12.59 5 15.93 3.66 3.52-1 7.49-5.78 10.8-12.81a16.83 16.83 0 0 0 -15.68-2.74z" fill="#30242a"/><path d="m1206.14 773a8.19 8.19 0 0 1 6.72-14.87 16.85 16.85 0 0 0 -8.61-13.37l-13.76 30.64a16.82 16.82 0 0 0 15.65-2.4z" fill="#f5ebdd"/><path d="m1202.63 762.5a8.19 8.19 0 0 0 3.51 10.52 16.82 16.82 0 0 0 6.72-14.87 8.19 8.19 0 0 0 -10.23 4.35z" fill="#4856df"/><circle cx="865.40002" cy="249.07001" fill="#fff" r="15.9"/><circle cx="913.59003" cy="249.07001" fill="#fff" r="15.9"/><circle cx="961.78003" cy="249.07001" fill="#fff" r="15.9"/><path d="m1210.53 204.25a29.33 29.33 0 0 1 29.33 29.33v360.63a29.33 29.33 0 0 1 -29.33 29.32h-360.62a29.33 29.33 0 0 1 -29.33-29.32v-360.63a29.33 29.33 0 0 1 29.33-29.33zm0-4h-360.62a33.37 33.37 0 0 0 -33.33 33.33v360.63a33.36 33.36 0 0 0 33.33 33.32h360.62a33.36 33.36 0 0 0 33.33-33.32v-360.63a33.37 33.37 0 0 0 -33.33-33.33z" fill="#f5ebdd"/><path d="m816.72 430.76s-21.2 0-24.09 8.67 3.85 15.43 3.85 15.43-11.56 5.78-3.85 16.38c0 0-5.79 9.64 3.85 15.42 0 0-5.78 6.75 3.86 13.5s23.13 7.71 26 4.82c3.41-3.41 2.72-8.4-3.94-13.84 0 0 12.62 1.31 14.54-5.44s-4.81-10.6-4.81-10.6 8.67 0 8.67-7.71-7.71-9.64-7.71-9.64 4.08-2.95 2.89-7.71c-1.42-5.67-10.64-8.21-15.43-9.16a33.32 33.32 0 0 0 -3.85-.48z" fill="#a15842"/><path d="m797.59 487.47a139.18 139.18 0 0 0 29.41 5.53" fill="none" stroke="#30242a" stroke-linecap="round" stroke-miterlimit="10" stroke-width="4"/><path d="m794 472a153.66 153.66 0 0 0 42.68 4.39" fill="none" stroke="#30242a" stroke-linecap="round" stroke-miterlimit="10" stroke-width="4"/><path d="m797.05 456a118.34 118.34 0 0 0 40.42 2.58" fill="none" stroke="#30242a" stroke-linecap="round" stroke-miterlimit="10" stroke-width="4"/><path d="m1106.84 613.93s-78.07 20.25-105.06 40.49c-12.19 9.14-27 26-31.8 33.73s-25.06 36.63-15.42 37.59 20.24-16.38 20.24-16.38-5.8 21.2-4.8 27.95 10.6 4.82 10.6 4.82c7.71 7.71 14.46-1.93 14.46-1.93 13.49 8.67 28-37.59 28-37.59a91 91 0 0 0 21.69-14.94s86.26-.48 113.25-24.58c19.16-17.1 23.89-50.83 23.88-82.93h-75z" fill="#a15842"/><path d="m1107.5601 611.59003 17.5999-4.40003" fill="none" stroke="#30242a" stroke-linecap="round" stroke-miterlimit="10" stroke-width="4"/><path d="m971 717c5-17 9-27 12-33.19" fill="none" stroke="#30242a" stroke-linecap="round" stroke-miterlimit="10" stroke-width="4"/><path d="m996.48 689.6c-8.68 18.7-14 41.26-16.48 52.4" fill="none" stroke="#30242a" stroke-linecap="round" stroke-miterlimit="10" stroke-width="4"/><path d="m1010 696.34c-5.67 13-10.82 32.56-14 44.66" fill="none" stroke="#30242a" stroke-linecap="round" stroke-miterlimit="10" stroke-width="4"/><path d="m987.48 647.67c-23.49 8.36-49.71 18.4-69.55 27.91-35.56 17-40.33 51.51-36.66 107.68" fill="none" stroke="#000" stroke-linecap="round" stroke-linejoin="round" stroke-width="4"/><path d="m422.57 924.29c-39.43 8-67.53 18.28-67.53 18.28l-37.94-16.81.08-.83-88.41 80.29 1.93 2.31a25.72 25.72 0 0 0 19.75 9.25h177.45z" fill="#eaa58b"/><path d="m355 942.57s28.1-10.33 67.53-18.28l5.33 92.49h126.65c34.24 0 64.25-24 70.63-57.64 4.25-22.45-2.39-46.49-26.25-62.84-38.38-26.3-120.48-60.72-141.68-67.47l-116.63 27c-22.17 24.1-17.35 63.61-17.35 63.61z" fill="#a15842"/><path d="m422.86 925.54c26.22-5.07 55.51-9.46 96.51-7.55" fill="none" stroke="#30242a" stroke-linecap="round" stroke-miterlimit="10" stroke-width="4"/><path d="m459.21 827.83c18.55 5.91 83.73 33 125.44 57.3" fill="none" stroke="#30242a" stroke-linecap="round" stroke-miterlimit="10" stroke-width="4"/><path d="m336 925.63-97.29 88.29a25.61 25.61 0 0 0 11.77 2.86h70.82l33.7-74.21a72.07 72.07 0 0 0 -19-16.94z" fill="#ffbe21"/><path d="m323.23 919.43-94.46 85.79 1.93 2.31a25.61 25.61 0 0 0 8 6.39l97.3-88.29a64.25 64.25 0 0 0 -12.77-6.2z" fill="#ff7235"/><path d="m301.54001 999.91998v17.08002" fill="none" stroke="#30242a" stroke-linecap="round" stroke-miterlimit="10" stroke-width="4"/><path d="m286.12 999.91998v17.08002" fill="none" stroke="#30242a" stroke-linecap="round" stroke-miterlimit="10" stroke-width="4"/><path d="m392.05 627.69c3-.28 9.26-.79 15.52-.79" fill="none" stroke="#4756df" stroke-linecap="round" stroke-miterlimit="10" stroke-width="4"/><path d="m670.22 593.65s18.8-6.23 24 1.61.38 16.4.38 16.4 13.09 2.59 8.32 15.25c0 0 8.39 8 .39 16.4 0 0 7.6 5.13-.15 14.48s-20.9 14-24.57 11.92c-4.32-2.46-5-7.61.13-14.85 0 0-12.19 4.75-15.95-1.43s1.89-11.87 1.89-11.87-8.63 2.38-10.74-5.3 5-11.7 5-11.7-4.86-1.81-5-6.88c-.19-7.37 12.74-13.79 16.2-15.35z" fill="#eaa58b"/><path d="m656 625.91c7.42-1.3 26.27-5.32 38.75-14" fill="none" stroke="#a15842" stroke-linecap="round" stroke-miterlimit="10" stroke-width="4"/><path d="m659 643.92a106 106 0 0 0 44-15.92" fill="none" stroke="#a15842" stroke-linecap="round" stroke-miterlimit="10" stroke-width="4"/><path d="m673 658.59c2.67-.94 20.09-7.19 30.66-13.89" fill="none" stroke="#a15842" stroke-linecap="round" stroke-miterlimit="10" stroke-width="4"/><path d="m406.17 782c-17.45 2.13-36.92 5.28-58.84 9.2l30.84-82.89 13.49-79s-44.33 4.82-64.57 28c-18.67 21.33-77.11 120.48-54 172.53s92.55 33.69 108.91 28.87c8.93-2.63 22.46-8.69 36.35-13.2z" fill="#3ec1f3"/><path d="m451.42 840.4c21.21 2.89 45.3 13.49 49.16 0 0 0 13-.33 8.9-12.69 0 0 6.52-.81 7.48-5.63 1.93-9.63-21.2-18.31-21.2-18.31s18.31 2.89 22.17-1c4.91-4.92.13-12.75-29.78-20-21.72-5.26-48-4.94-82-.78l12.21 63.47c11.64-3.7 23.42-6.38 33.06-5.06z" fill="#eaa58b"/><path d="m504 805c-10.27-3.94-29.77-10.49-43.9-12.79" fill="none" stroke="#a15842" stroke-linecap="round" stroke-miterlimit="10" stroke-width="4"/><path d="m509.88 827.31c-13.4-6-39.28-17.12-53.16-19.2" fill="none" stroke="#a15842" stroke-linecap="round" stroke-miterlimit="10" stroke-width="4"/><path d="m499.49 841.4c-10.33-5.24-31-15.08-45.66-17.87" fill="none" stroke="#a15842" stroke-linecap="round" stroke-miterlimit="10" stroke-width="4"/><path d="m406.34 783.44c-9.42 1.22-39.55 5.38-84.56 14.07" fill="none" stroke="#4756df" stroke-linecap="round" stroke-miterlimit="10" stroke-width="4"/><circle cx="1168.05" cy="551.71997" fill="#fff" r="42.889999"/><rect fill="#4856df" height="38.549999" rx="12.05" width="24.1" x="1156" y="526.65997"/><path d="m1168.05 561.35999v13.5" fill="none" stroke="#4856df" stroke-linecap="round" stroke-miterlimit="10" stroke-width="4"/><path d="m1161.14 574.85999h13.82" fill="none" stroke="#4856df" stroke-linecap="round" stroke-miterlimit="10" stroke-width="4"/></g></svg>